<svg width="20" height="15" viewBox="0 0 20 15" fill="#000" xmlns="http://www.w3.org/2000/svg">
<path d="M6.88372 1.2302C6.94069 1.16189 7.01126 1.1062 7.09094 1.06667C7.17063 1.02715 7.25767 1.00467 7.34653 1.00065C7.43538 0.996638 7.5241 1.01118 7.60702 1.04336C7.68995 1.07553 7.76526 1.12463 7.82815 1.18752C7.89105 1.25042 7.94015 1.32573 7.97232 1.40865C8.00449 1.49158 8.01904 1.58029 8.01502 1.66915C8.01101 1.758 7.98852 1.84505 7.949 1.92473C7.90948 2.00442 7.85379 2.07499 7.78548 2.13196L3.1847 6.73814H18.392C18.5561 6.74685 18.7107 6.8182 18.8238 6.93748C18.9369 7.05677 19 7.2149 19 7.37929C19 7.54369 18.9369 7.70182 18.8238 7.8211C18.7107 7.94038 18.5561 8.01173 18.392 8.02044H3.1847L7.79269 12.6212C7.90867 12.7427 7.97339 12.9042 7.97339 13.0721C7.97339 13.24 7.90867 13.4015 7.79269 13.523C7.73355 13.5823 7.66328 13.6294 7.58591 13.6615C7.50853 13.6936 7.42558 13.7101 7.34181 13.7101C7.25804 13.7101 7.17509 13.6936 7.09772 13.6615C7.02035 13.6294 6.95008 13.5823 6.89093 13.523L1.19182 7.82386C1.13116 7.76547 1.08291 7.69545 1.04995 7.61797C1.01699 7.5405 1 7.45717 1 7.37298C1 7.28879 1.01699 7.20546 1.04995 7.12799C1.08291 7.05051 1.13116 6.98049 1.19182 6.9221L6.88372 1.2302Z" fill="#353535" stroke="#353535"/>
</svg>
