<svg width="253" height="458" viewBox="0 0 253 458" fill="none" xmlns="http://www.w3.org/2000/svg">
<g clip-path="url(#clip0_2:633)">
<path d="M9.02557 70.9696L13.5384 73.6398L9.02557 70.9696C10.0127 70.1264 10.9999 69.4237 11.9871 68.8616L128.756 1.6864L139.051 7.58883L22.282 74.764C21.2948 75.3262 20.3076 76.0288 19.3204 76.872C17.3461 78.5584 15.5127 80.6665 14.1025 83.0555L3.80762 77.1531C5.3589 74.9046 7.05121 72.656 9.02557 70.9696Z" fill="#F4F4FA"/>
<path d="M22.2821 74.7641L11.9872 68.8616C5.35897 72.656 0 81.9313 0 89.6607L10.2949 95.5631C10.2949 87.9742 15.6538 78.5585 22.2821 74.7641Z" fill="#F4F4FA"/>
<path d="M142.295 320.136L139.897 323.368C146.526 319.574 152.026 310.158 151.885 302.569L150.192 306.223C150.333 311.423 146.808 317.607 142.295 320.136Z" fill="#BFBEED"/>
<path d="M25.5259 387.311L23.2695 390.684L140.039 323.368L142.295 320.136L25.5259 387.311Z" fill="#BFBEED"/>
<path d="M17.6284 384.36L11.2822 386.047C11.7053 388.436 12.6925 390.263 14.2438 391.246L19.6027 387.733C18.6156 387.171 17.9104 385.906 17.6284 384.36Z" fill="#F4F4FA"/>
<path d="M19.6031 387.733L14.2441 391.246C16.5006 392.792 19.6031 392.652 23.1288 390.684L25.5262 387.452C23.2698 388.717 21.1544 388.857 19.6031 387.733Z" fill="#BFBEED"/>
<path d="M4.37232 385.484L14.6672 391.387C12.5518 390.122 11.1416 387.452 11.1416 383.658L0.84668 377.755C0.84668 381.55 2.11591 384.22 4.37232 385.484Z" fill="#BFBEED"/>
<path d="M11.1416 383.798L0.84668 377.896C0.84668 381.69 2.25694 384.36 4.37232 385.625L14.6672 391.527C12.4108 390.263 11.1416 387.592 11.1416 383.798Z" fill="#BFBEED"/>
<path d="M150.333 306.364L152.026 302.71L151.18 14.475L149.487 18.1289L150.333 306.364Z" fill="#BFBEED"/>
<path d="M149.487 18.1288L151.179 14.475C151.179 13.2102 151.038 12.2264 150.756 11.2427L149.205 16.0208C149.487 16.583 149.487 17.4262 149.487 18.1288Z" fill="#BFBEED"/>
<path d="M149.348 16.0208L150.899 11.2427C150.335 8.99412 149.066 7.44825 147.373 6.60504L146.95 12.9291C148.078 13.4912 148.925 14.4749 149.348 16.0208Z" fill="#F4F4FA"/>
<path d="M146.949 12.9291L147.372 6.60507C145.821 5.9024 143.987 5.76186 141.872 6.46453L143.282 12.7886C144.693 12.367 145.962 12.367 146.949 12.9291Z" fill="#F4F4FA"/>
<path d="M143.283 12.7886L141.872 6.46454C141.026 6.60507 140.039 7.02667 139.052 7.58881L141.449 13.6318C142.154 13.2102 142.718 12.9291 143.283 12.7886Z" fill="#F4F4FA"/>
<path d="M147.654 6.74615L137.359 0.843724C135.103 -0.421081 132.141 -0.280548 128.757 1.68693L139.052 7.58935C142.436 5.62188 145.539 5.48134 147.654 6.74615Z" fill="#F4F4FA"/>
<path d="M147.654 6.74562L137.359 0.843193C136.09 -1.02604e-05 134.398 -0.140544 132.564 0.140524L142.859 6.04295C144.693 5.76188 146.385 6.04295 147.654 6.74562Z" fill="#F4F4FA"/>
<path d="M142.859 6.18346L132.565 0.140503C131.436 0.421571 130.167 0.843172 128.757 1.68638L139.052 7.5888C140.462 6.88613 141.731 6.324 142.859 6.18346Z" fill="#F4F4FA"/>
<path d="M16.6411 94.5793L17.4872 382.674C17.4872 383.236 17.4872 383.798 17.6283 384.22L11.2821 386.047C11.1411 385.344 11.1411 384.501 11.1411 383.798L10.2949 95.563L16.6411 94.5793Z" fill="#F4F4FA"/>
<path d="M10.2949 95.563L0 89.6606L0.846154 377.755L11.141 383.798L10.2949 95.563Z" fill="#BFBEED"/>
<path d="M141.449 13.6318L139.051 7.58881L22.2822 74.764L24.6797 80.807L141.449 13.6318Z" fill="#F4F4FA"/>
<path d="M24.6801 80.807C20.1672 83.3366 16.6416 89.5201 16.6416 94.7199L17.4878 382.814C17.4878 387.874 21.1544 389.982 25.5262 387.452L142.295 320.277C146.808 317.747 150.334 311.564 150.334 306.364L149.488 18.2694C149.488 13.2102 145.821 11.1022 141.449 13.6318L24.6801 80.807Z" fill="#F4F4FA"/>
<path d="M24.6795 80.807L22.2821 74.764C17.0641 77.7152 12.5513 84.1798 11 90.3633L17.2051 91.066C18.1923 86.9905 21.1538 82.7745 24.6795 80.807Z" fill="#F4F4FA"/>
<path d="M17.2052 91.2065L11.0001 90.5038C10.577 92.1902 10.2949 94.0172 10.2949 95.563L16.6411 94.5793C16.6411 93.455 16.7821 92.3308 17.2052 91.2065Z" fill="#F4F4FA"/>
<path d="M14.1018 83.1961L3.80689 77.2936C2.11458 79.9638 0.845353 83.0555 0.28125 86.0067L10.5761 91.9092C11.2813 88.8174 12.5505 85.8662 14.1018 83.1961Z" fill="#F4F4FA"/>
<path d="M10.7179 91.7686L0.423077 85.8662C0.141026 87.131 0 88.3958 0 89.6606L10.2949 95.563C10.2949 94.2982 10.4359 93.0334 10.7179 91.7686Z" fill="#BFBEED"/>
<path d="M17.2044 373.82C17.2044 375.366 17.4864 376.631 18.1916 377.474C19.6018 379.723 22.2813 380.144 25.3839 378.317C25.3839 378.317 143.281 310.439 143.845 309.877C147.512 306.926 150.192 301.586 150.051 297.229L149.204 17.9883C149.204 12.9291 145.538 10.8211 141.166 13.3507L24.3967 80.807C21.0121 82.7744 18.0505 86.8499 16.9223 91.0659C16.7813 91.7686 16.4993 92.4713 16.4993 93.3145C16.3582 93.5956 17.2044 373.82 17.2044 373.82Z" fill="#0C50CA"/>
<path d="M58.6665 77.7152L108.307 49.1869C111.128 47.641 113.666 44.2682 114.795 40.7548L120.154 25.015L46.8203 67.1752L52.1793 76.7315C53.3075 78.8395 55.846 79.2611 58.6665 77.7152Z" fill="#F4F4FA"/>
<path d="M64.1675 65.6293C64.0265 69.0021 61.488 73.2181 58.5265 74.9045C57.6803 75.3261 56.9752 75.6072 56.2701 75.6072C55.706 75.6072 55.1419 75.3262 54.8598 75.0451C54.2957 74.4829 54.0137 73.4992 54.0137 72.2344C54.1547 68.8616 56.6932 64.6456 59.6547 62.9592C60.5009 62.5376 61.206 62.2565 61.9111 62.2565C62.1932 62.2565 62.4752 62.397 62.7573 62.397C63.7444 62.9592 64.1675 64.0834 64.1675 65.6293Z" fill="#F4F4FA"/>
<path d="M63.6034 65.3482C63.4624 68.7211 60.9239 72.9371 57.9624 74.6235C57.1162 75.0451 56.4111 75.3261 55.706 75.3261C55.4239 75.3261 55.1419 75.1856 54.8598 75.1856C54.2957 74.6235 54.0137 73.6397 54.0137 72.3749C54.1547 69.0021 56.6932 64.7861 59.6547 63.0997C60.5009 62.6781 61.206 62.397 61.9111 62.397C62.1932 62.397 62.4752 62.5376 62.7573 62.5376C63.3214 63.0997 63.6034 64.0834 63.6034 65.3482Z" fill="#BFBEED"/>
<path d="M55.7067 74.6235C55.4247 74.6235 55.2837 74.6235 55.1426 74.483C54.7196 74.0614 54.4375 73.2182 54.4375 72.0939C54.5785 68.8616 56.976 64.9267 59.7965 63.2403C60.5016 62.8187 61.2067 62.6781 61.7708 62.6781C62.0529 62.6781 62.1939 62.6781 62.3349 62.8187C62.758 63.2403 63.0401 64.0835 63.0401 65.2077C62.899 68.44 60.5016 72.375 57.6811 74.0614C56.976 74.483 56.2708 74.6235 55.7067 74.6235Z" fill="#0C50CA"/>
<path d="M59.5147 64.9267C59.5147 65.3483 59.2327 65.7699 58.8096 66.0509C58.3865 66.1915 58.1045 66.0509 58.1045 65.6293C58.1045 65.2077 58.3865 64.7861 58.8096 64.5051C59.2327 64.3645 59.5147 64.5051 59.5147 64.9267Z" fill="#0C50CA"/>
<path d="M57.9628 65.9104C58.1039 66.1915 57.9628 66.6131 57.6808 67.0347C57.3987 67.4563 56.9756 67.4563 56.8346 67.3157C56.6936 67.0347 56.8346 66.6131 57.1167 66.1915C57.3987 65.7699 57.6808 65.6293 57.9628 65.9104Z" fill="#0C50CA"/>
<path d="M56.5519 67.5968C56.8339 67.5968 56.9749 68.0184 56.8339 68.44C56.6929 68.8616 56.2698 69.2832 55.9878 69.1426C55.7057 69.1426 55.5647 68.721 55.7057 68.2994C55.8467 67.8778 56.2698 67.5968 56.5519 67.5968Z" fill="#0C50CA"/>
<path d="M55.8477 69.5643C56.2708 69.4237 56.5528 69.5643 56.5528 69.9859C56.5528 70.4075 56.2708 70.8291 55.8477 71.1101C55.4246 71.2507 55.1426 71.1101 55.1426 70.6885C55.1426 70.2669 55.4246 69.8453 55.8477 69.5643Z" fill="#0C50CA"/>
<path d="M55.8481 71.3912C56.1302 70.9696 56.5532 70.9696 56.6943 71.1102C56.8353 71.3912 56.6943 71.8128 56.4122 72.2344C56.1302 72.6561 55.7071 72.656 55.5661 72.5155C55.425 72.2344 55.5661 71.8128 55.8481 71.3912Z" fill="#0C50CA"/>
<path d="M56.6936 72.3749C56.8346 71.9533 57.2577 71.5317 57.5398 71.6723C57.8218 71.6723 57.9628 72.0939 57.8218 72.5155C57.6808 72.9371 57.2577 73.3587 56.9757 73.2181C56.5526 73.2181 56.4116 72.9371 56.6936 72.3749Z" fill="#0C50CA"/>
<path d="M57.9629 72.5155C57.9629 72.0939 58.2449 71.6723 58.668 71.3912C59.0911 71.2507 59.3731 71.3912 59.3731 71.8128C59.3731 72.2344 59.0911 72.656 58.668 72.9371C58.2449 73.0776 57.9629 72.9371 57.9629 72.5155Z" fill="#0C50CA"/>
<path d="M59.6549 71.5318C59.5139 71.2507 59.6549 70.8291 59.937 70.4075C60.219 69.9859 60.6421 69.9859 60.7831 70.1264C60.9242 70.4075 60.7831 70.8291 60.5011 71.2507C60.219 71.6723 59.796 71.8128 59.6549 71.5318Z" fill="#0C50CA"/>
<path d="M60.9243 69.8454C60.6422 69.8454 60.5012 69.4237 60.6422 69.0021C60.7833 68.5805 61.2063 68.1589 61.4884 68.2995C61.7704 68.2995 61.9115 68.7211 61.7704 69.1427C61.6294 69.5643 61.3474 69.8454 60.9243 69.8454Z" fill="#0C50CA"/>
<path d="M61.7707 67.8778C61.3476 68.0184 61.0656 67.8778 61.2066 67.4562C61.2066 67.0346 61.4887 66.613 61.9117 66.332C62.3348 66.1914 62.6169 66.332 62.6169 66.7536C62.4758 67.1752 62.0528 67.5968 61.7707 67.8778Z" fill="#0C50CA"/>
<path d="M61.7716 66.0509C61.4895 66.4725 61.0665 66.4725 60.9254 66.332C60.7844 66.0509 60.9254 65.6293 61.2075 65.2077C61.4895 64.7861 61.9126 64.7861 62.0536 64.9267C62.1947 65.2077 62.0536 65.7699 61.7716 66.0509Z" fill="#0C50CA"/>
<path d="M60.9247 65.0672C60.7837 65.4888 60.3606 65.9104 60.0786 65.7699C59.7965 65.7699 59.6555 65.3483 59.7965 64.9266C59.9376 64.505 60.3606 64.0834 60.6427 64.224C61.0658 64.224 61.0658 64.6456 60.9247 65.0672Z" fill="#0C50CA"/>
<path d="M60.3604 67.8778C60.3604 68.8616 59.6553 69.9859 58.8091 70.4075C57.9629 70.8291 57.2578 70.4075 57.2578 69.5643C57.2578 68.5805 57.9629 67.4563 58.8091 67.0346C59.6553 66.4725 60.3604 66.8941 60.3604 67.8778Z" fill="#0C50CA"/>
<path d="M80.3853 56.3541C80.2443 59.7269 77.7058 63.9429 74.7443 65.6293C73.8981 66.0509 73.193 66.332 72.4879 66.332C71.9238 66.332 71.3597 66.0509 71.0776 65.7699C70.5135 65.2077 70.2314 64.224 70.2314 62.9592C70.3725 59.5864 72.9109 55.3703 75.8725 53.6839C76.7186 53.2623 77.4238 52.9813 78.1289 52.9813C78.4109 52.9813 78.693 53.1218 78.975 53.1218C79.8212 53.5434 80.3853 54.6677 80.3853 56.3541Z" fill="#F4F4FA"/>
<path d="M79.8212 55.9325C79.6802 59.3053 77.1417 63.5213 74.1802 65.2077C73.334 65.6293 72.6289 65.9104 71.9238 65.9104C71.6417 65.9104 71.3597 65.7698 71.0776 65.7698C70.5135 65.2077 70.2314 64.224 70.2314 62.9592C70.3725 59.5864 72.9109 55.3703 75.8725 53.6839C76.7186 53.2623 77.4238 52.9813 78.1289 52.9813C78.4109 52.9813 78.693 53.1218 78.975 53.1218C79.5391 53.6839 79.8212 54.6677 79.8212 55.9325Z" fill="#BFBEED"/>
<path d="M71.9245 65.2077C71.6425 65.2077 71.5014 65.2077 71.3604 65.0671C70.9373 64.6455 70.6553 63.8023 70.6553 62.6781C70.7963 59.4458 73.1937 55.5108 76.0142 53.8244C76.7194 53.4028 77.4245 53.2623 77.9886 53.2623C78.2707 53.2623 78.4117 53.2623 78.5527 53.4028C78.9758 53.8244 79.2578 54.6676 79.2578 55.7919C79.1168 59.0242 76.7194 62.9591 73.8989 64.6455C73.1937 65.0671 72.4886 65.3482 71.9245 65.2077Z" fill="#0C50CA"/>
<path d="M75.7315 55.6514C75.7315 56.073 75.4495 56.4946 75.0264 56.7757C74.6033 56.9162 74.3213 56.7757 74.3213 56.3541C74.3213 55.9325 74.6033 55.5109 75.0264 55.2298C75.4495 54.9487 75.7315 55.2298 75.7315 55.6514Z" fill="#0C50CA"/>
<path d="M74.1806 56.4946C74.3216 56.7757 74.1806 57.1973 73.8986 57.6189C73.6165 58.0405 73.1934 58.0405 73.0524 57.9C72.9114 57.6189 73.0524 57.1973 73.3344 56.7757C73.6165 56.3541 73.8985 56.2135 74.1806 56.4946Z" fill="#0C50CA"/>
<path d="M72.7696 58.181C73.0517 58.181 73.1927 58.6026 73.0517 59.0242C72.9107 59.4458 72.4876 59.8674 72.2055 59.7269C71.9235 59.7269 71.7825 59.3053 71.9235 58.8837C72.0645 58.4621 72.4876 58.181 72.7696 58.181Z" fill="#0C50CA"/>
<path d="M71.9239 60.289C72.347 60.1485 72.629 60.289 72.629 60.7106C72.629 61.1322 72.347 61.5538 71.9239 61.8349C71.5008 61.9754 71.2188 61.8349 71.2188 61.4133C71.3598 60.8512 71.6418 60.4296 71.9239 60.289Z" fill="#0C50CA"/>
<path d="M72.0646 61.9755C72.3467 61.5539 72.7698 61.5539 72.9108 61.6944C73.0518 61.9755 72.9108 62.3971 72.6287 62.8187C72.3467 63.2403 71.9236 63.2403 71.7826 63.0997C71.6416 62.8187 71.6416 62.3971 72.0646 61.9755Z" fill="#0C50CA"/>
<path d="M72.9114 63.0997C73.0524 62.6781 73.4755 62.2565 73.7575 62.397C74.0396 62.397 74.1806 62.8186 74.0396 63.2402C73.8986 63.6618 73.4755 64.0834 73.1934 63.9429C72.7704 63.9429 72.6293 63.5213 72.9114 63.0997Z" fill="#0C50CA"/>
<path d="M74.1807 63.0997C74.1807 62.6781 74.4627 62.2565 74.8858 61.9755C75.3089 61.8349 75.5909 61.9755 75.5909 62.3971C75.5909 62.8187 75.3089 63.2403 74.8858 63.5213C74.4627 63.6619 74.1807 63.5213 74.1807 63.0997Z" fill="#0C50CA"/>
<path d="M75.8727 62.116C75.7317 61.8349 75.8727 61.4133 76.1548 60.9917C76.4368 60.5701 76.8599 60.5701 77.0009 60.7106C77.1419 60.9917 77.0009 61.4133 76.7189 61.8349C76.4368 62.2565 76.0137 62.397 75.8727 62.116Z" fill="#0C50CA"/>
<path d="M77.1421 60.4296C76.86 60.4296 76.719 60.008 76.86 59.5864C77.001 59.1648 77.4241 58.7432 77.7062 58.8837C77.9882 58.8837 78.1292 59.3053 77.9882 59.7269C77.8472 60.1485 77.4241 60.4296 77.1421 60.4296Z" fill="#0C50CA"/>
<path d="M77.9885 58.4621C77.5654 58.6026 77.2834 58.4621 77.4244 58.0405C77.4244 57.6189 77.7064 57.1973 78.1295 56.9162C78.5526 56.7757 78.8346 56.9162 78.8346 57.3378C78.5526 57.7594 78.2705 58.3215 77.9885 58.4621Z" fill="#0C50CA"/>
<path d="M77.9874 56.6352C77.7054 57.0568 77.2823 57.0568 77.1413 56.9162C77.0002 56.6352 77.1413 56.2136 77.4233 55.792C77.7054 55.3704 78.1284 55.3704 78.2695 55.5109C78.4105 55.792 78.2695 56.3541 77.9874 56.6352Z" fill="#0C50CA"/>
<path d="M77.1415 55.6514C77.0005 56.073 76.5774 56.4946 76.2954 56.3541C76.0133 56.3541 75.8723 55.9325 76.0133 55.5109C76.1544 55.0893 76.5774 54.6677 76.8595 54.8082C77.1415 54.8082 77.2826 55.2298 77.1415 55.6514Z" fill="#0C50CA"/>
<path d="M76.4365 58.4621C76.4365 59.4458 75.7314 60.5701 74.8853 60.9917C74.0391 61.4133 73.334 60.9917 73.334 60.1485C73.334 59.1648 74.0391 58.0405 74.8853 57.6189C75.8724 57.1973 76.5776 57.6189 76.4365 58.4621Z" fill="#0C50CA"/>
<path d="M88.423 53.684L94.6281 50.1706C95.7563 49.4679 96.7435 47.9221 96.7435 46.5167C96.7435 45.2519 95.7563 44.6898 94.6281 45.2519L88.423 48.7653C87.2948 49.4679 86.3076 51.0138 86.3076 52.4192C86.3076 53.684 87.2948 54.2461 88.423 53.684Z" fill="#231869"/>
<path d="M168.104 275.728C168.245 275.587 168.668 275.587 168.809 275.728C169.091 275.868 169.232 276.009 169.514 276.149C171.347 277.836 173.322 279.944 174.873 281.77L174.732 281.63C175.014 281.911 175.155 282.192 175.437 282.473L175.578 282.614C176.283 282.754 176.988 283.035 177.552 283.597C177.834 284.019 178.117 284.441 178.258 284.862C178.54 285.705 178.681 287.954 178.681 288.797C178.681 289.078 178.117 289.64 177.834 289.64C177.834 289.64 177.834 289.64 177.693 289.5C177.129 289.921 176.706 290.484 176.283 291.046C176.001 291.467 175.437 291.467 174.873 291.608C172.758 288.938 170.078 287.673 168.386 284.722C168.245 284.3 167.963 284.019 168.104 283.597C168.245 283.176 168.668 282.895 169.091 283.035C168.95 282.614 168.95 282.192 169.373 281.911C169.655 281.63 170.219 281.489 170.642 281.77C170.501 281.349 170.783 281.068 171.065 280.787C171.206 280.646 171.347 280.646 171.629 280.646C170.642 279.662 169.655 278.679 168.668 277.414C168.386 276.992 167.822 276.43 167.963 276.009C167.963 275.868 167.963 275.728 168.104 275.728Z" fill="#F9D5C3"/>
<path d="M231.285 423.569C231.144 423.148 230.862 422.866 230.016 422.726C229.028 422.585 228.041 422.585 227.054 422.585C225.644 422.445 224.375 422.445 222.964 422.304C222.964 421.18 223.105 420.056 223.246 419.072C221.836 419.353 220.99 418.932 219.58 418.51C218.028 417.948 216.336 417.386 214.644 416.964C213.939 416.824 213.234 416.542 212.528 416.683C210.695 417.105 209.708 420.056 209.99 421.602C210.131 422.726 210.977 423.71 211.823 424.412C213.093 425.396 215.067 426.239 216.759 426.52C218.593 426.801 220.144 427.364 221.695 428.488C223.528 429.893 224.939 431.439 227.336 431.72C229.875 431.861 231.849 430.455 231.99 427.785C231.99 426.801 231.849 425.958 231.708 425.115C231.426 424.412 231.426 423.85 231.285 423.569Z" fill="#BFBEED"/>
<path d="M218.592 428.066C218.592 427.926 218.592 427.645 218.592 427.504C218.733 425.537 217.887 423.85 217.181 421.883C216.899 421.18 216.617 420.477 216.053 420.056C214.784 418.932 212.669 419.915 211.681 421.461C211.258 422.164 211.117 422.866 210.694 423.569C209.989 424.974 208.72 426.52 207.028 426.52C204.912 426.661 202.374 425.818 200.117 425.677C199.271 425.677 198.425 425.537 197.579 425.958C195.746 426.661 195.181 429.753 195.887 431.439C196.31 432.423 197.297 433.266 198.284 433.688C199.835 434.39 201.81 434.812 203.502 434.671C205.335 434.531 207.028 434.671 208.72 435.515C211.54 436.92 214.925 438.747 217.746 436.217C218.451 435.515 218.874 434.531 219.015 433.407C219.297 431.72 218.592 429.893 218.592 428.066Z" fill="#BFBEED"/>
<path d="M226.911 344.308C225.642 345.713 220.283 343.324 220.283 342.622C214.078 337.984 215.206 356.956 217.18 364.545C218.168 368.62 218.027 372.836 218.732 376.912C219.437 381.55 220.565 386.047 221.975 390.403C222.257 391.387 222.68 392.371 223.386 393.073C224.796 394.479 227.193 394.338 229.309 393.917C231.142 393.635 233.116 393.073 233.962 391.387C234.527 390.403 234.386 389.279 234.386 388.155C234.245 385.203 234.245 382.252 234.668 379.301C235.232 376.209 235.796 373.118 236.36 370.026C236.783 367.356 237.347 364.685 237.488 361.875C237.911 356.956 237.347 352.037 236.501 347.119C236.078 344.589 236.783 339.811 233.116 339.389C229.591 339.389 227.757 343.465 226.911 344.308Z" fill="#0C50CA"/>
<path d="M220.142 386.749L219.155 382.533C219.578 383.939 219.86 385.344 220.142 386.749Z" fill="#6E4CB3"/>
<path d="M222.68 388.857C223.668 387.311 226.347 387.452 227.193 387.733C227.898 388.014 232.834 385.063 234.244 383.939C234.103 384.079 234.385 385.203 234.385 385.344C234.385 385.906 234.527 386.328 234.527 386.89C234.668 387.874 234.668 388.857 234.809 389.841C234.95 391.809 235.091 393.776 235.091 395.743C235.091 409.937 232.552 422.304 232.27 423.71C232.129 424.412 231.988 425.115 231.565 425.677C230.86 426.52 229.027 427.223 226.347 426.801C224.655 426.52 223.103 425.396 222.539 423.71C221.975 422.304 222.116 420.618 222.257 419.072C222.68 412.889 223.103 406.846 222.962 400.803C222.821 395.884 222.398 390.965 221.411 386.047L222.68 388.857Z" fill="#0C50CA"/>
<path d="M205.617 358.08C205.335 364.123 205.335 370.026 205.758 376.069C206.041 379.723 206.464 383.236 207.028 386.89C207.31 388.717 207.592 390.403 208.015 392.23C208.297 393.917 208.72 394.479 210.13 395.322C213.092 397.289 218.592 397.149 220.848 393.776C223.246 390.122 222.4 384.36 223.387 380.144C224.656 374.101 228.746 369.745 230.861 364.123C231.566 362.015 231.989 360.048 231.989 358.08H205.617Z" fill="#0C50CA"/>
<path d="M238.335 329.693C238.476 328.568 238.617 327.585 238.758 326.46C239.604 321.401 241.155 316.482 241.86 311.283C242.424 307.348 242.706 302.288 239.604 299.337C239.04 298.775 238.476 298.353 237.912 298.072C231.706 294.559 225.924 298.775 220.142 300.883C216.335 302.288 212.668 303.975 209.283 306.223C208.155 306.926 206.886 307.488 206.04 308.612C205.194 309.877 204.771 311.142 204.63 312.688C204.489 314.374 204.912 316.061 205.194 317.747C206.886 327.585 207.591 337.562 206.463 347.4C205.899 351.616 205.476 363.28 205.476 363.28C206.886 363.842 207.732 364.404 214.642 364.545C228.886 364.826 236.642 361.172 237.489 360.469C238.335 359.767 238.053 357.94 238.053 356.956C238.194 353.864 238.053 350.773 238.053 347.681C237.771 341.778 237.489 335.735 238.335 329.693Z" fill="#EA5F00"/>
<path d="M208.296 394.9C208.437 397.992 208.719 401.084 208.719 404.176C208.86 406.565 208.86 409.094 209.001 411.483C209.001 413.31 209.142 415.278 209.142 417.105C209.283 427.504 208.014 429.753 212.95 431.299C214.078 431.58 215.206 431.72 216.335 431.439C219.578 430.736 220.142 427.926 220.706 424.553C220.988 422.585 221.129 420.196 221.27 418.229C221.412 416.542 221.412 414.856 221.553 413.17C221.694 410.921 221.694 408.673 221.835 406.424C221.976 403.473 221.976 400.522 222.117 397.57C222.258 393.776 222.681 389.841 222.822 386.047C222.822 385.485 222.54 384.922 222.117 384.641C221.553 384.22 209.988 388.155 208.719 389.419C208.437 389.701 208.014 391.106 208.296 394.9Z" fill="#0C50CA"/>
<path d="M207.45 303.694C203.642 303.132 194.617 301.445 192.642 300.18C187.424 297.089 181.924 290.765 179.668 287.673C178.963 286.689 172.476 290.765 172.476 291.608C172.476 292.311 177.411 300.04 178.258 301.164C182.206 306.926 186.014 310.158 187.424 310.861C190.95 312.828 204.911 318.45 205.758 318.731C208.296 319.293 212.668 316.904 213.655 315.077C220.142 303.975 209.001 303.975 207.45 303.694Z" fill="#F4F4FA"/>
<path d="M218.45 295.824C218.168 294.278 217.04 294.7 217.604 293.294C218.168 292.17 218.873 291.046 219.86 290.343C220.848 289.5 222.117 289.078 223.386 289.219C223.809 289.219 224.091 289.5 224.514 289.5C225.783 289.5 226.912 289.219 228.181 289.5C229.309 289.64 230.437 289.781 230.437 291.046C230.437 292.873 230.296 294.559 230.86 296.245C231.142 297.229 231.566 298.072 231.707 299.056C231.848 301.024 230.437 302.851 228.745 303.694C226.63 304.677 224.091 304.677 221.835 304.256C220.707 304.115 219.014 303.834 218.45 302.71C217.886 301.867 218.168 300.743 218.309 299.899C218.45 298.635 218.591 297.229 218.45 295.824Z" fill="#F9D5C3"/>
<path d="M220.989 273.057L225.925 276.009C225.502 275.868 225.079 275.868 224.515 276.149L219.579 273.198C220.143 272.917 220.707 272.776 220.989 273.057Z" fill="#0C50CA"/>
<path d="M224.657 276.009L219.721 273.057C220.285 272.776 220.708 272.776 221.131 272.917L226.067 275.868C225.644 275.728 225.221 275.728 224.657 276.009Z" fill="#7F89A6"/>
<path d="M213.232 276.43C212.527 277.273 211.963 278.257 211.822 279.522C211.399 282.052 212.527 284.722 211.963 287.392C211.399 289.921 212.527 295.543 217.463 296.948C220.001 297.651 224.796 296.808 226.489 296.105C228.604 295.121 230.014 293.013 231.283 291.046C241.296 274.744 220.283 267.998 213.232 276.43Z" fill="#F9D5C3"/>
<path d="M235.796 283.597C235.796 284.019 235.655 284.581 235.514 285.003C235.373 285.424 235.373 285.705 235.232 286.127C235.091 286.408 235.091 286.689 234.95 286.97C234.527 288.095 233.822 289.078 233.117 290.062C232.13 291.467 231.143 292.873 229.591 293.575C228.886 293.856 228.181 293.997 227.476 294.137C225.502 294.559 222.681 294.7 221.13 293.013C220.425 292.311 220.143 291.327 220.143 290.343C220.002 289.359 220.002 288.657 219.719 287.673C219.719 287.392 219.578 287.251 219.578 286.97C219.437 286.549 219.296 286.268 219.155 285.987C218.873 285.424 218.45 285.003 217.745 284.862C216.758 284.581 215.489 285.143 214.643 284.581C214.219 284.3 213.937 283.738 213.796 283.176C213.655 282.614 213.373 282.052 213.232 281.63C212.95 280.927 212.668 280.225 212.245 279.662C211.963 279.381 211.681 279.1 211.54 278.819C211.258 278.398 210.976 277.976 210.976 277.414C210.835 275.025 212.809 272.636 214.502 271.23C215.348 270.387 216.335 269.685 217.463 269.263C218.45 268.841 219.437 268.701 220.566 268.56C223.668 268.139 227.053 268.139 229.732 269.685C230.437 270.106 231.143 270.668 231.566 271.371C231.707 271.512 231.707 271.652 231.848 271.793C231.989 271.933 232.271 272.074 232.412 272.214C233.117 272.495 233.822 273.057 234.245 273.479C236.643 275.868 236.219 280.225 235.796 283.597Z" fill="#0C50CA"/>
<path d="M218.873 283.738C220.847 283.597 221.411 285.986 220.001 287.954C219.578 288.516 218.873 289.078 218.45 289.5C214.924 292.592 214.078 289.359 215.065 288.235C217.745 285.846 216.475 284.019 218.873 283.738Z" fill="#F9D5C3"/>
<path d="M218.309 287.532C218.591 287.392 220.707 285.986 219.156 285.143C218.732 284.862 218.309 285.284 218.168 285.705C218.168 285.986 218.168 286.127 218.168 286.408C218.168 286.549 218.027 286.689 218.027 286.83C217.886 287.111 217.181 287.532 217.322 287.954C217.604 288.235 218.309 287.532 218.309 287.532Z" fill="#FFBFA2"/>
<g opacity="0.2">
<path opacity="0.2" d="M232.129 154.868C232.129 162.457 226.77 171.592 220.283 175.386L48.5138 274.182C41.8856 277.976 36.5266 274.884 36.5266 267.436L36.1035 140.815V128.448C36.1035 120.859 41.4625 111.724 47.9497 107.93L219.719 8.99413C226.347 5.19972 231.706 8.29146 231.706 15.7398V28.1067L232.129 154.868Z" fill="#BFBEED"/>
</g>
<g opacity="0.2">
<path opacity="0.2" d="M241.296 163.581C241.296 171.17 235.937 180.305 229.45 184.099L57.6808 282.895C51.0526 286.689 45.6936 283.597 45.6936 276.149L45.2705 149.528V137.161C45.2705 129.572 50.6295 120.438 57.1167 116.643L228.886 17.8478C235.514 14.0534 240.873 17.1451 240.873 24.5934V36.9604L241.296 163.581Z" fill="#BFBEED"/>
</g>
<path d="M246.231 23.8907L249.192 25.5771C247.077 24.3123 244.115 24.4529 240.872 26.4203L237.91 24.7339C241.154 22.7664 244.115 22.6259 246.231 23.8907Z" fill="#F4F4FA"/>
<path d="M240.872 26.4204L237.91 24.734C241.154 22.907 244.115 22.6259 246.231 23.8908L249.192 25.5772C247.077 24.3124 244.115 24.5934 240.872 26.4204Z" fill="#FE8786"/>
<path d="M63.7436 288.516L60.7821 286.83C58.6667 285.565 57.3975 283.035 57.3975 279.381L60.359 281.068C60.359 284.722 61.6282 287.251 63.7436 288.516Z" fill="#BFBEED"/>
<path d="M63.7436 288.516L60.7821 286.83C58.6667 285.565 57.3975 283.035 57.3975 279.381L60.359 281.068C60.359 284.722 61.6282 287.251 63.7436 288.516Z" fill="#BFBEED"/>
<path d="M59.9366 144.047L56.834 142.361L56.975 154.447L59.9366 156.133V144.047Z" fill="#FF6661"/>
<path d="M56.9756 154.447L57.2576 279.241L60.3602 280.927L59.9371 156.133L56.9756 154.447Z" fill="#BFBEED"/>
<path d="M71.6412 123.81L68.6797 122.124L237.91 24.7339L240.872 26.4204L71.6412 123.81Z" fill="#FE8786"/>
<path d="M59.9371 144.047L56.9756 142.361C56.9756 134.912 62.1935 125.918 68.6807 122.124L71.6422 123.81C65.1551 127.605 59.9371 136.599 59.9371 144.047Z" fill="#F4F4FA"/>
<path d="M59.9371 144.047L56.9756 142.361C56.9756 134.912 62.1935 125.918 68.6807 122.124L71.6422 123.81C65.1551 127.605 59.9371 136.599 59.9371 144.047Z" fill="#FF6661"/>
<path d="M253.001 170.046C253.001 177.494 247.783 186.488 241.296 190.283L72.0651 287.673C65.5779 291.467 60.219 288.376 60.219 280.927L59.7959 156.133V143.907C59.7959 136.458 65.0138 127.464 71.501 123.67L240.732 26.2798C247.219 22.4854 252.578 25.5771 252.578 33.0254V45.2519L253.001 170.046Z" fill="#F3F2FC"/>
<path d="M252.719 45.2519L59.9365 156.133V143.907C59.9365 136.458 65.1545 127.464 71.6417 123.67L240.872 26.2798C247.36 22.4854 252.719 25.5771 252.719 33.0254V45.2519Z" fill="#EA5F00"/>
<path d="M185.732 122.405C185.732 105.822 174.167 99.0764 159.924 107.227C145.68 115.378 134.116 135.475 134.116 152.058C134.116 168.641 145.68 175.386 159.924 167.235C174.167 158.944 185.732 138.847 185.732 122.405Z" fill="#0C50CA"/>
<path d="M167.963 116.081C167.963 121.14 164.437 127.464 159.924 129.994C155.552 132.523 151.886 130.415 151.886 125.356C151.886 120.297 155.411 113.973 159.924 111.443C164.437 108.914 167.963 110.881 167.963 116.081Z" fill="white"/>
<path d="M172.475 151.636V136.318C172.475 129.572 167.821 126.902 162.039 130.134L157.95 132.523C152.168 135.896 147.514 144.047 147.514 150.793V166.111L172.475 151.636Z" fill="white"/>
<path d="M161.617 130.415L158.232 132.383L161.617 130.415Z" fill="#BFBEED"/>
<path d="M200.117 164.144L119.732 210.379V196.888L200.117 150.652V164.144Z" fill="white"/>
<path d="M175.295 207.569L145.257 224.854V233.567L175.295 216.282V207.569Z" fill="#0C50CA"/>
<path d="M200.117 184.943L119.732 231.319V217.827L200.117 171.451V184.943Z" fill="white"/>
<path d="M125.796 221.341L124.386 221.622L124.668 220.638L126.078 220.357V218.53L126.783 218.109V220.076L128.193 218.671L128.475 219.373L126.924 220.779L127.911 221.762L127.347 222.606L126.501 221.481L125.655 223.589L125.091 223.449L125.796 221.341Z" fill="#F22B38"/>
<path d="M130.026 218.811L128.616 219.092L128.898 218.109L130.309 217.828V216.001L131.014 215.579V217.546L132.424 216.141L132.706 216.844L131.155 218.249L132.142 219.233L131.578 220.076L130.732 218.952L129.885 221.06L129.321 220.919L130.026 218.811Z" fill="#F22B38"/>
<path d="M134.258 216.422L132.848 216.703L133.13 215.72L134.54 215.438V213.612L135.245 213.19V215.157L136.655 213.752L136.937 214.455L135.386 215.86L136.373 216.844L135.809 217.687L134.963 216.563L134.117 218.671L133.553 218.53L134.258 216.422Z" fill="#F22B38"/>
<path d="M138.488 213.893L137.078 214.174L137.36 213.19L138.77 212.909V211.082L139.476 210.66V212.628L140.886 211.222L141.168 211.925L139.617 213.33L140.604 214.314L140.04 215.157L139.194 214.033L138.347 216.141L137.783 216.001L138.488 213.893Z" fill="#F22B38"/>
<path d="M142.86 211.504L141.45 211.785L141.732 210.801L143.142 210.52V208.693L143.848 208.271V210.239L145.258 208.833L145.54 209.536L143.989 210.941L144.976 211.925L144.412 212.768L143.566 211.644L142.719 213.752L142.155 213.612L142.86 211.504Z" fill="#F22B38"/>
<path d="M234.104 43.5655C234.104 45.1114 235.232 45.814 236.642 44.9708C238.052 44.1276 239.18 42.3007 239.18 40.6143C239.18 38.9279 238.052 38.3657 236.642 39.2089C235.232 40.0521 234.104 42.0196 234.104 43.5655Z" fill="#F4F4FA"/>
<path d="M226.207 48.0626C226.207 49.6085 227.335 50.3111 228.745 49.4679C230.156 48.6247 231.284 46.7978 231.284 45.1114C231.284 43.5655 230.156 42.8628 228.745 43.706C227.335 44.5492 226.207 46.5167 226.207 48.0626Z" fill="#F4F4FA"/>
<path d="M218.309 52.7002C218.309 54.2461 219.437 54.9488 220.847 54.1055C222.257 53.2623 223.385 51.4354 223.385 49.749C223.385 48.2031 222.257 47.5005 220.847 48.3437C219.437 49.1869 218.309 51.0138 218.309 52.7002Z" fill="#F4F4FA"/>
<path d="M31.166 443.806L1.26855 426.52C1.26855 432.844 3.52497 437.201 7.19163 439.309L37.0891 456.595C33.4224 454.487 31.166 450.13 31.166 443.806Z" fill="#FC8230"/>
<path d="M133.551 290.343L103.654 273.058C99.9871 270.95 94.9102 271.231 89.4102 274.463L119.308 291.749C124.808 288.516 129.884 288.235 133.551 290.343Z" fill="#FFDE38"/>
<path d="M133.55 290.343L103.653 273.057C99.9863 270.949 95.0504 271.23 89.6914 274.322L119.589 291.608C124.948 288.516 130.025 288.235 133.55 290.343Z" fill="#FC8230"/>
<path d="M119.59 291.608L89.6922 274.322C89.5512 274.322 89.5512 274.463 89.4102 274.463L119.308 291.748C119.449 291.608 119.449 291.608 119.59 291.608Z" fill="#FFDE38"/>
<path d="M30.8847 365.529L0.987305 348.243L1.26936 426.52L31.1668 443.806L30.8847 365.529Z" fill="#FC8230"/>
<path d="M119.308 291.748L89.4101 274.463L21.0127 313.672L51.0512 330.957L119.308 291.748Z" fill="#FC8230"/>
<path d="M51.052 330.957L21.1545 313.672C10.1545 319.996 1.12891 335.595 1.12891 348.243L31.0263 365.529C30.8853 352.881 39.911 337.422 51.052 330.957Z" fill="#FC8230"/>
<path d="M51.0514 330.957L21.154 313.672C18.7566 315.077 16.5002 316.763 14.3848 318.871L44.2822 336.157C46.3976 334.19 48.654 332.363 51.0514 330.957Z" fill="#FC8230"/>
<path d="M44.1412 336.298L14.2437 319.012C6.48731 326.741 0.987305 338.406 0.987305 348.384L30.8847 365.669C30.8847 355.691 36.5258 343.886 44.1412 336.298Z" fill="#FC8230"/>
<path d="M51.052 330.957C40.052 337.281 31.0264 352.881 31.0264 365.529L31.3084 443.806C31.3084 456.454 40.4751 461.654 51.4751 455.189L119.731 415.84C130.731 409.516 139.757 393.916 139.757 381.268L139.475 302.991C139.475 290.343 130.308 285.143 119.308 291.467L51.052 330.957Z" fill="#EA5F00"/>
<path d="M98.4356 397.008C98.4356 391.809 94.7689 389.56 90.2561 392.23C85.7432 394.9 81.9355 401.224 81.9355 406.424C81.9355 409.937 83.4868 411.905 85.8843 412.326V427.223L94.3458 422.304V407.408C96.8843 404.316 98.4356 400.381 98.4356 397.008Z" fill="white"/>
<path d="M119.308 242.14L119.167 283.738C119.167 285.143 118.179 286.689 116.346 287.673C112.538 289.921 106.333 289.781 102.667 287.673C100.833 286.549 99.8461 285.143 99.8461 283.597L99.9871 241.999C99.9871 234.692 98.0128 229.351 94.3461 227.384C90.8205 225.276 85.0384 226.119 78.6923 229.773L67.9743 235.956C51.1923 245.513 36.9487 269.966 36.8076 289.219L36.6666 330.817C36.6666 332.222 35.6794 333.768 33.8461 334.752C31.4487 336.157 28.0641 336.719 24.8205 336.298C23.1282 336.017 21.4358 335.595 20.0256 334.752C19.4615 334.471 19.0384 334.19 18.7564 333.768C17.7692 332.784 17.2051 331.8 17.2051 330.676L17.3461 289.078C17.3461 276.43 21.5769 262.236 29.3333 249.167C36.9487 236.097 47.2435 225.416 58.2435 219.092L68.9615 212.909C75.0256 209.396 81.0897 207.428 86.8717 207.006C93.0769 206.444 98.9999 207.709 103.936 210.66C108.872 213.612 112.961 218.109 115.5 223.73C118.038 229.07 119.308 235.254 119.308 242.14Z" fill="#DADAF9"/>
<path d="M99.5635 229.773C98.4353 229.07 97.1661 228.789 95.7559 228.649C98.4353 231.178 99.8456 235.956 99.8456 242.14L99.7046 283.738C99.7046 285.143 100.692 286.689 102.525 287.813C103.23 288.235 104.076 288.657 105.064 288.938L105.205 244.529C105.205 237.221 103.23 231.74 99.5635 229.773Z" fill="#BFBEED"/>
<path d="M105.346 213.19C101.962 212.206 98.2949 211.925 94.6282 212.206C88.8462 212.628 82.7821 214.736 76.718 218.109L66 224.292C55 230.616 44.7052 241.297 37.0898 254.366C29.4744 267.436 25.1026 281.63 25.1026 294.278L24.9616 336.298C23.2693 336.017 21.5769 335.595 20.1667 334.752C19.6026 334.471 19.1795 334.19 18.8975 333.768L19.0385 291.748C19.0385 279.1 23.2693 264.906 31.0257 251.837C38.6411 238.767 48.9359 228.087 59.9359 221.763L70.6539 215.579C76.718 212.066 82.7821 210.098 88.5641 209.677C94.6282 209.114 100.41 210.379 105.346 213.19Z" fill="#F4F4FA"/>
</g>
<defs>
<clipPath id="clip0_2:633">
<rect width="253" height="458" fill="white"/>
</clipPath>
</defs>
</svg>
