<svg width="92" height="90" viewBox="0 0 92 90" fill="none" xmlns="http://www.w3.org/2000/svg">
<g clip-path="url(#clip0_2:4899)">
<path d="M58.7 12.8L48 3.7C46.7 2.6 44.6 2.6 43.3 3.7L33.3 12.2L31.5 10L41.5 1.5C43.9 -0.5 47.7 -0.5 50 1.5L60.6 10.5L58.7 12.8Z" fill="#353535"/>
<path d="M90 89.9999H1.4C0.6 89.9999 0 89.3999 0 88.5999V37.5999C0 37.2999 0.1 36.9999 0.2 36.6999C0.3 36.4999 0.5 36.2999 0.7 36.1999L9.7 28.4999L11.6 30.6999L3 38.0999V87.0999H88.7V38.0999L79.8 30.5999L81.7 28.3999L90.9 36.1999C91.2 36.3999 91.3 36.5999 91.5 36.8999C91.6 37.0999 91.6 37.2999 91.6 37.4999V88.3999C91.4 89.3999 90.8 89.9999 90 89.9999Z" fill="#353535"/>
<path d="M81.7996 39.5H78.9996V13.1H11.9996V39.5H9.09961V10.2H81.7996V39.5Z" fill="#353535"/>
<path d="M59.9004 65.5H31.6004C31.2004 65.5 31.0004 65.3999 30.7004 65.0999L0.400391 40.4L2.20039 38.2L32.0004 62.7H59.4004L89.4004 38.2L91.2004 40.4L60.7004 65.3C60.5004 65.4 60.2004 65.5 59.9004 65.5Z" fill="#353535"/>
<path d="M4.9 88.9999L3 86.7999L12.8 78.3999L20.3 71.9999C21.2 71.2999 22.3 70.2999 23.5 69.2999L30.9 62.8999L32.8 65.0999L25.4 71.3999C24.3 72.3999 23.1 73.2999 22.2 74.0999L14.7 80.4999L4.9 88.9999Z" fill="#353535"/>
<path d="M87.2 89.7L69.1 74.2C68.2 73.5 67.1 72.5 65.9 71.5L58.5 65.2L60.4 63L67.8 69.3C68.9 70.3 70.1 71.2 71 72L89.1 87.5L87.2 89.7Z" fill="#353535"/>
<path d="M46.3004 54.6C37.0004 54.6 29.4004 47 29.4004 37.7001C29.4004 28.4001 37.0004 20.8 46.3004 20.8C51.4004 20.8 56.2004 23.1 59.4004 27L57.2004 28.8C54.5004 25.5 50.5004 23.6 46.3004 23.6C38.6004 23.7 32.2004 30.0001 32.2004 37.7001C32.2004 45.4001 38.5004 51.8 46.3004 51.8C49.4004 51.8 52.3004 50.8001 54.8004 48.9001L56.5004 51.2001C53.5004 53.4001 50.0004 54.6 46.3004 54.6Z" fill="#0C50CA"/>
<path d="M43.5001 46C42.9001 46 42.1001 45.9 41.4001 45.7C39.2001 45.1 37.6001 43.3 37.0001 40.9C36.2001 37.7 37.4001 34 40.2001 31.5C44.4001 27.6 51.2001 29.1 51.6001 29.1L53.1001 29.5L52.6001 31C52.4001 31.2 49.7001 40 49.2001 41.5C48.4001 43.7 46.5001 46 43.5001 46ZM48.0001 31.6C46.1001 31.6 43.7001 32 42.0001 33.5C39.6001 35.7 39.3001 38.4 39.7001 40.2C40.1001 41.6 40.9001 42.6 42.1001 42.9C44.3001 43.5 45.7001 42.7 46.5001 40.5C46.9001 39.5 48.4001 34.3 49.3001 31.6C48.9001 31.6 48.5001 31.6 48.0001 31.6Z" fill="#0C50CA"/>
<path d="M52.8008 45.8001C51.4008 45.8001 50.0008 45.3001 48.9008 44.3001C46.7008 42.3001 48.2008 35.5001 49.3008 31.5001L52.0008 32.3001C50.8008 36.6001 50.2008 41.3001 50.8008 42.1001C51.9008 43.0001 53.2008 42.9001 54.2008 42.5001C56.4008 41.8001 58.9008 39.3001 59.4008 36.0001C59.8008 33.6001 59.3008 30.0001 54.8008 26.3001L56.6008 24.1001C62.6008 28.8001 62.7008 33.9001 62.3008 36.5001C61.7008 40.4001 58.7008 44.1001 55.2008 45.3001C54.4008 45.7001 53.6008 45.8001 52.8008 45.8001Z" fill="#0C50CA"/>
</g>
<defs>
<clipPath id="clip0_2:4899">
<rect width="91.4" height="90" fill="white"/>
</clipPath>
</defs>
</svg>
