<svg width="36" height="36" viewBox="0 0 36 36" fill="none" xmlns="http://www.w3.org/2000/svg">
<path d="M30.6 0H5.4C2.34 0 0 2.34 0 5.4V21.78V30.6C0 33.66 2.34 36 5.4 36H30.6C30.96 36 31.32 36 31.5 35.82C31.68 35.82 31.68 35.82 31.86 35.82C32.04 35.82 32.22 35.64 32.4 35.64C32.58 35.64 32.58 35.46 32.76 35.46C32.94 35.46 33.12 35.28 33.12 35.28C33.3 35.28 33.48 35.1 33.48 35.1C35.1 33.84 36 32.4 36 30.6V25.38V5.4C36 2.34 33.66 0 30.6 0ZM31.68 34.02C31.32 34.2 30.96 34.2 30.6 34.2H5.4C3.42 34.2 1.8 32.58 1.8 30.6V22.14L8.64 15.3C9.9 14.04 11.88 14.04 13.14 15.3L19.26 21.42L31.68 34.02ZM34.2 30.6C34.2 31.5 33.84 32.4 33.3 32.94L21.06 20.7L23.04 18.72C24.3 17.46 26.28 17.46 27.54 18.72L34.38 25.56V30.6H34.2ZM34.2 23.22L28.62 17.64C26.64 15.66 23.58 15.66 21.6 17.64L19.8 19.62L14.22 14.04C12.24 12.06 9.18 12.06 7.2 14.04L1.8 19.62V5.4C1.8 3.42 3.42 1.8 5.4 1.8H30.6C32.58 1.8 34.2 3.42 34.2 5.4V23.22ZM20.7 7.2C19.26 7.2 18 8.46 18 9.9C18 11.34 19.26 12.6 20.7 12.6C22.14 12.6 23.4 11.34 23.4 9.9C23.4 8.46 22.14 7.2 20.7 7.2ZM20.7 10.8C20.16 10.8 19.8 10.44 19.8 9.9C19.8 9.36 20.16 9 20.7 9C21.24 9 21.6 9.36 21.6 9.9C21.6 10.44 21.24 10.8 20.7 10.8Z" fill="#0C50CA"/>
</svg>
