<svg width="178" height="60" viewBox="0 0 178 60" fill="none" xmlns="http://www.w3.org/2000/svg">
<g clip-path="url(#clip0_2:7092)">
<path d="M75.303 29.1973C75.303 34.2642 73.996 39.0803 71.6837 43.2441C70.3264 45.7023 68.6675 47.9097 66.707 49.8662C61.4288 55.1338 54.0895 58.4448 45.9962 58.4448H0L23.2746 0H45.9962C62.1828 0 75.303 13.0936 75.303 29.1973Z" fill="#0C50CA"/>
<path opacity="0.12" d="M72.5883 41.4883C71.1305 44.6488 69.4716 47.0067 66.7068 49.8662C61.4788 55.2341 54.0893 58.4448 45.996 58.4448H13.9746L43.0301 23.4783L53.3855 29.2475L57.206 28.8462C57.2562 28.8963 57.2562 28.8963 57.3065 28.9465L72.5883 41.4883Z" fill="white"/>
<path d="M57.3059 31.9064L47.7548 42.0402C46.9505 42.9432 45.543 42.9432 44.6381 42.1405L42.5771 40.2341C41.6723 39.4315 41.6723 38.0268 42.4766 37.1238L43.0295 36.5218C43.0295 36.5218 41.3707 35.0669 40.2647 33.2107L39.008 34.6154C38.4048 35.2676 37.3491 35.3178 36.6956 34.6656L36.3438 34.3646L19.9058 58.4449H9.70117L32.8752 31.1037L32.5233 30.7525C31.8698 30.1505 31.8195 29.097 32.473 28.4448L33.9308 26.8897C32.7747 26.3378 30.0099 24.2308 30.0099 24.2308L29.4569 24.8328C28.6526 25.7358 27.2451 25.7358 26.3402 24.9331L24.2792 23.0268C23.3743 22.2241 23.3743 20.8194 24.1787 19.9164L33.7298 9.78264C34.5341 8.87963 35.9416 8.87963 36.8465 9.6823L38.9075 11.5887C39.8123 12.3913 39.8123 13.796 39.008 14.699L38.9577 14.7492C38.9577 14.7492 41.2199 17.3579 41.8734 18.4616C42.5268 19.5652 44.4371 21.7224 44.4371 21.7224C44.4371 21.7224 46.3976 23.4281 48.4586 24.4315C50.5196 25.4348 52.1282 27.0903 52.1282 27.0903L52.1785 27.0402C52.9828 26.1372 54.3903 26.1372 55.2952 26.9398L57.3562 28.8462C57.4065 28.8964 57.4065 28.8964 57.4568 28.9465C58.1102 29.7492 58.1102 31.0535 57.3059 31.9064Z" fill="white"/>
<path d="M89.7928 41.99H105.829V49.1639H82.3027V9.18066H105.527V16.3546H89.7928V25.4348H104.17V32.4583H89.7928V41.99Z" fill="white"/>
<path d="M110.756 49.1138V9.18066H117.743V49.1138H110.756Z" fill="white"/>
<path d="M141.872 22.0236H149.363L139.46 49.164C138.052 53.0269 136.192 55.8363 133.829 57.5921C131.517 59.348 128.601 60.1506 125.133 59.95V53.4282C126.993 53.4784 128.501 53.0771 129.607 52.2242C130.713 51.3714 131.567 50.067 132.221 48.2108L121.111 21.9734H128.752L135.84 40.1841L141.872 22.0236Z" fill="white"/>
<path d="M177.713 49.1137H169.62L163.738 40.8863L157.857 49.1137H149.764L159.717 35.2676L150.216 22.0234H158.309L163.789 29.6489L169.268 22.0234H177.311L167.81 35.2676L177.713 49.1137Z" fill="white"/>
</g>
<defs>
<clipPath id="clip0_2:7092">
<rect width="177.5" height="60" fill="white"/>
</clipPath>
</defs>
</svg>
