<svg width="90" height="90" viewBox="0 0 90 90" fill="none" xmlns="http://www.w3.org/2000/svg">
<path d="M74.9 90C73.7 90 72.6 90 71.4 90C71.2 89.9 71.1 89.9 70.9 89.8C66.9 89.3 63.5 87.5 60.8 84.5C60.3 84 60 83.9 59.4 84.2C52.9 86.7 46.2 87.7 39.2 86.9C30.6 86 22.8 82.8 16.1 77.3C7.8 70.5 2.6 61.8 0.7 51.2C0.4 49.6 0.2 47.9 0 46.3C0 44.5 0 42.8 0 41C0.1 40.8 0.1 40.6 0.1 40.3C0.6 33.6 2.5 27.3 6 21.5C13 10.1 22.9 3.2 36 0.7C37.7 0.4 39.3 0.2 41 0C42.8 0 44.5 0 46.3 0C46.5 0.1 46.7 0.1 47 0.1C55 0.8 62.4 3.5 69 8.2C85.1 19.7 91.5 41 84.2 59.4C84 60 84 60.3 84.5 60.7C87.1 63 88.8 65.9 89.5 69.3C89.7 70 89.8 70.7 90 71.4C90 72.6 90 73.7 90 74.9C89.9 75 89.9 75.2 89.8 75.3C88.7 82.6 83.9 87.8 76.9 89.6C76.2 89.7 75.6 89.9 74.9 90ZM56.2 17C61.5 18.1 64.6 21.9 64.6 27.2C64.6 32.2 64.6 37.2 64.6 42.1C64.6 46 63.6 49.7 61.6 53C59.7 56.1 57.2 58.6 54.1 60.4C53.8 60.6 53.5 60.9 53.4 61.1C53.3 62.3 53.4 63.4 53.4 64.6C54.9 64.6 56.4 64.6 57.8 64.6C58.3 64.6 58.6 64.4 58.8 64C62 59.1 66.5 56.5 72.4 56.2C75.6 56 78.6 56.8 81.4 58.4C88 43.1 84.1 20.2 64.3 8.5C44.4 -3.2 19.4 3.5 8 23.8C-2.5 42.4 4 63.9 16.9 74.3C18.2 67.9 23.4 64.3 29.4 64.7C30.8 64.8 32.2 64.7 33.7 64.7C33.7 63.8 33.6 62.9 33.7 62.1C33.8 61.2 33.4 60.7 32.7 60.2C26.1 56 22.7 50 22.5 42.1C22.4 37.5 22.5 32.8 22.5 28.2C22.5 18 30.6 9.9 40.9 9.8C45.4 9.8 50 9.8 54.5 9.8C55.8 9.8 56.2 10.3 56.3 11.5C56.3 13.4 56.2 15.1 56.2 17ZM25.3 39.8C25.3 40.7 25.3 41.7 25.3 42.6C25.7 53.5 35.2 61.6 46.1 60.2C53.9 59.2 60.4 53 61.5 45.3C61.9 42.3 61.8 39.1 61.8 36C61.8 35.7 61.6 35.4 61.4 35.2C60.3 34.1 59.2 33 58.1 31.9C57.5 31.3 57 31.2 56.2 31.4C51.3 33.1 46.3 33.9 41.2 33.5C37.5 33.3 34 32.4 30.5 31.3C30 31.1 29.7 31.2 29.3 31.6C28.3 32.7 27.3 33.7 26.2 34.7C25.5 35.3 25.2 36 25.2 37C25.4 38 25.3 38.9 25.3 39.8ZM87.2 73.2C87.2 65.5 80.9 59.2 73.2 59.1C65.4 59.1 59.1 65.4 59.1 73.1C59.1 80.8 65.4 87.1 73.1 87.2C80.8 87.2 87.2 80.9 87.2 73.2ZM61.9 31.8C61.9 30 61.9 28.5 61.9 26.9C61.9 22.9 59.2 20 55.1 19.7C53.8 19.6 53.4 19.2 53.4 17.9C53.4 16.2 53.4 14.5 53.4 12.7C48.9 12.7 44.5 12.6 40 12.7C31.4 13.1 23.9 20.4 25.3 31.6C26.3 30.6 27.2 29.7 28.2 28.7C28.8 28.1 29.4 28 30.3 28.3C31.3 28.7 32.3 29 33.4 29.3C41.3 31.7 49.1 31.2 56.7 28.3C57.6 28 58.3 28 58.9 28.7C59.8 29.8 60.8 30.7 61.9 31.8ZM57.1 67.6C54.2 67 51.5 67.5 49.3 69.6C49.2 69.7 49 69.9 48.8 69.9C48.3 70 47.6 70.3 47.2 70.1C44.8 68.9 42.5 68.9 40.1 70.1C39.7 70.3 38.9 70.1 38.5 69.9C37.4 69.3 36.4 68.5 35.3 67.8C35 67.6 34.7 67.5 34.3 67.5C32.3 67.5 30.3 67.5 28.3 67.5C23.5 67.6 20 71 19.7 75.8C19.7 76.4 19.8 76.8 20.3 77.1C30.8 84.2 42.2 86.1 54.5 82.9C55.8 82.6 57.2 82 58.5 81.6C56.2 77.3 55.5 73 57.1 67.6ZM50.6 62.1C45.9 63.7 41.2 63.7 36.5 62.1C36.5 63.1 36.5 64 36.5 64.9C36.5 65.2 36.7 65.5 36.9 65.6C39.4 67.4 39.4 67.4 42.2 66.4C42.3 66.4 42.3 66.4 42.4 66.3C43.1 65.9 43.8 66 44.6 66.3C47.5 67.4 47.5 67.3 50 65.6C50.1 65.6 50.2 65.5 50.2 65.5C50.3 65.3 50.5 65.1 50.5 64.9C50.6 64 50.6 63.1 50.6 62.1Z" fill="#353535"/>
<path d="M74.5008 74.5C74.5008 76.3 74.5008 78 74.5008 79.7C74.5008 80.8 74.0008 81.5 73.1008 81.5C72.2008 81.5 71.7008 80.9 71.7008 79.7C71.7008 78 71.7008 76.3 71.7008 74.5C70.6008 74.5 69.5008 74.5 68.4008 74.5C67.8008 74.5 67.2008 74.5 66.6008 74.5C65.4008 74.5 64.8008 74 64.8008 73.1C64.8008 72.2 65.5008 71.7 66.6008 71.7C68.0008 71.7 69.4008 71.7 70.8008 71.7C71.1008 71.7 71.4008 71.7 71.8008 71.7C71.8008 71 71.8008 70.2 71.8008 69.5C71.8008 68.4 71.8008 67.3 71.8008 66.2C71.8008 65.3 72.4008 64.7 73.2008 64.7C74.0008 64.7 74.6008 65.3 74.6008 66.2C74.6008 67.7 74.6008 69.2 74.6008 70.7C74.6008 71 74.6008 71.3 74.6008 71.7C76.0008 71.7 77.3008 71.7 78.6008 71.7C79.0008 71.7 79.4008 71.7 79.8008 71.7C80.9008 71.7 81.6008 72.2 81.6008 73.1C81.6008 74 81.0008 74.5 79.9008 74.5C78.5008 74.5 77.0008 74.5 75.6008 74.5C75.2008 74.5 74.9008 74.5 74.5008 74.5Z" fill="#0C50CA"/>
<path d="M44.9992 74.5C44.9992 75.3 44.3992 75.9 43.5992 75.9C42.8992 75.9 42.1992 75.3 42.1992 74.5C42.1992 73.8 42.7992 73.1 43.5992 73.1C44.3992 73.1 44.9992 73.7 44.9992 74.5Z" fill="#0C50CA"/>
<path d="M43.499 81.5C42.799 81.4 42.099 80.7 42.199 80C42.299 79.3 42.999 78.6 43.699 78.7C44.499 78.8 44.999 79.4 44.999 80.2C44.999 81 44.299 81.6 43.499 81.5Z" fill="#0C50CA"/>
</svg>
